<svg id="icons_white_medium" data-name="icons/white/medium" xmlns="http://www.w3.org/2000/svg" width="29" height="23" viewBox="0 0 29 23">
  <path id="_" data-name="ï‡" d="M28.289,22.488v-.475L26.08,19.846a.66.66,0,0,1-.252-.633V3.275a.66.66,0,0,1,.252-.633L28.342.475V0H20.508L14.924,13.928,8.572,0H.357V.475L3,3.662a1.106,1.106,0,0,1,.357.926V17.115a1.427,1.427,0,0,1-.381,1.242L0,21.973v.469H8.437v-.475L5.461,18.357a1.476,1.476,0,0,1-.41-1.242V6.281l7.406,16.166h.861L19.687,6.281V19.16c0,.34,0,.41-.223.633l-2.291,2.221v.475Z" transform="translate(0 0)" fill="#fff"/>
</svg>
